<svg xmlns="http://www.w3.org/2000/svg" width="99.999" height="100" viewBox="0 0 99.999 100">
    <defs>
        <style>
            .a {
                fill: #6C63FF;
            }
        </style>
    </defs>
    <path class="a"
        d="M55,134a50.2,50.2,0,0,1-12.2-1.5v-25.45c.7.378,1.432.728,2.167,1.04a25.7,25.7,0,0,0,4.837,1.5,26.061,26.061,0,0,0,10.389,0,25.656,25.656,0,0,0,9.216-3.878,25.84,25.84,0,0,0,9.338-11.34,25.681,25.681,0,0,0,1.5-4.838,26.061,26.061,0,0,0,0-10.389,25.643,25.643,0,0,0-3.878-9.215A25.855,25.855,0,0,0,65.031,60.6a25.612,25.612,0,0,0-4.838-1.5,26.017,26.017,0,0,0-10.389,0,25.6,25.6,0,0,0-9.215,3.878,25.706,25.706,0,0,0-11.343,20.34h-.021v43.542A50.318,50.318,0,0,1,11.67,108.965a50.008,50.008,0,1,1,89.4-44.428A49.985,49.985,0,0,1,55,134Zm0-36.77a12.9,12.9,0,1,1,9.08-3.75A12.8,12.8,0,0,1,55,97.23Z"
        transform="translate(-5 -34)" />
</svg>